<svg xmlns="http://www.w3.org/2000/svg" width="67.15" height="59.33" viewBox="0 0 67.15 59.33"><defs><style>.cls-1,.cls-2,.cls-4,.cls-8,.cls-9{fill:none;stroke-miterlimit:10;}.cls-1{stroke:#e8cfc8;}.cls-1,.cls-8{stroke-linecap:round;}.cls-1,.cls-2,.cls-9{stroke-width:4px;}.cls-2,.cls-4{stroke:#e5e5e1;}.cls-3{fill:#3f3f3f;}.cls-4{stroke-width:4.1px;}.cls-5{fill:#e8cfc8;}.cls-6{fill:#1c1c1c;}.cls-7{fill:#fff;}.cls-8{stroke:#b586a2;stroke-width:1.67px;}.cls-9{stroke:#3f3f3f;}.cls-10{fill:#5c6e87;}</style></defs><title>Asset 8</title><g id="Layer_2" data-name="Layer 2"><g id="Layer_1-2" data-name="Layer 1"><path class="cls-1" d="M9.63,37.88a9.49,9.49,0,0,0-3.34.74c-2,.88-4.29,2.79-4.29,7"/><path class="cls-2" d="M9.63,37.88a9.49,9.49,0,0,0-3.34.74"/><path class="cls-3" d="M58.53,16.24l2.32,4s-1.54,1.9-2.27,6.74-7.52,3.85-7.52,3.85l4.13-19.23,1.11,6.89"/><path class="cls-3" d="M9.63,27.38S9.45,24.1,8,22.61s2.67-8.28,2.67-8.28L16,18.92Z"/><path class="cls-3" d="M21.69,3.1A46.27,46.27,0,0,1,31.56.39c.56-.06,1.11,0,1.67-.11,1.49-.2,5.29-.85,7.2.91,3.67,3.39,9,8.41,14.76,10.37s2.41,11,2.41,11h-47s-2.24-5.34,0-8.28S11.32,10.7,16,6.39"/><path class="cls-4" d="M9.63,37.84a9.07,9.07,0,0,0-3.34.78"/><path class="cls-1" d="M57.52,37.53a9.42,9.42,0,0,1,3.33.74c2.06.88,4.3,2.79,4.3,7"/><path class="cls-2" d="M57.52,37.53a9.42,9.42,0,0,1,3.33.74"/><polyline class="cls-1" points="19.37 51.09 19.37 53.58 19.37 57.33"/><line class="cls-1" x1="49.84" y1="51.09" x2="49.84" y2="57.33"/><path class="cls-5" d="M9.63,42.42v-15c0-5.65,2.7-10.72,6.82-12.86,6.06-3.17,12-4.93,17.66-4.92a43.73,43.73,0,0,1,17.68,4.49c4.11,2.11,6.79,7.21,6.79,12.85V42.42"/><circle class="cls-6" cx="47.57" cy="23.38" r="5.26"/><circle class="cls-7" cx="49.31" cy="21.37" r="1.74"/><path class="cls-8" d="M37.39,25.73c0,1.44-.57,2.91-3.28,2.91s-3.29-1.47-3.29-2.91"/><circle class="cls-6" cx="21.69" cy="24.18" r="5.26"/><circle class="cls-7" cx="20.63" cy="21.88" r="1.74"/><path class="cls-3" d="M11.46,39.64v2.78c0,9.66,5.7,10.49,12.74,10.49H44c7,0,12.74-.83,12.74-10.49V39.64Z"/><line class="cls-9" x1="19.37" y1="51.09" x2="19.37" y2="53.58"/><line class="cls-9" x1="49.84" y1="51.09" x2="49.84" y2="53.58"/><path class="cls-10" d="M57.7,47.51a17.89,17.89,0,0,0,.88-5.72V34L42,35.84a71.5,71.5,0,0,1-15.75,0L9.63,34v7.77a17.91,17.91,0,0,0,.88,5.73Z"/><path class="cls-3" d="M14.44,13.23A6.4,6.4,0,0,1,15.81,17c0,.63-.32.79.15,2,0,0,3.72-6.81,16.2-9.32,12.13-2.44.8-6.18.8-6.18L14.44,13.23Z"/><path class="cls-3" d="M37.39,9.87s4,.82,3,4.6c0,0,8.14-2.89,11.54.28,4.75,4.44,4-2.44,4-2.44L41.35,8Z"/></g></g></svg>