<svg xmlns="http://www.w3.org/2000/svg" width="310" height="281" viewBox="0 0 310 281"><defs><style>.cls-1{fill:#846c52;}.cls-2{fill:#d36446;}.cls-3{fill:#f4f4e9;}.cls-4{fill:none;stroke:#e5e1c7;stroke-miterlimit:10;stroke-width:3px;}.cls-5{fill:#e5e1c7;}.cls-6{fill:#5b5146;}.cls-7{fill:#b29983;}</style></defs><title>Asset 2</title><g id="Layer_2" data-name="Layer 2"><g id="Layer_1-2" data-name="Layer 1"><path class="cls-1" d="M14.4,203H295.6a4.4,4.4,0,0,1,4.4,4.4V281a0,0,0,0,1,0,0H10a0,0,0,0,1,0,0V207.4A4.4,4.4,0,0,1,14.4,203Z"/><polygon class="cls-2" points="259.8 55.96 250.76 41.08 241.71 26.2 255.43 24.31 269.15 22.42 264.48 39.19 259.8 55.96"/><polygon class="cls-2" points="52.2 58.11 48.57 41.08 44.93 24.05 58.51 26.79 72.09 29.53 62.14 43.82 52.2 58.11"/><polygon class="cls-3" points="101.15 64.04 95.72 47.5 90.3 30.95 104.09 32.23 117.88 33.5 109.51 48.77 101.15 64.04"/><polygon class="cls-2" points="152.49 66.11 145.69 50.08 138.9 34.05 152.74 34.16 166.59 34.27 159.54 50.19 152.49 66.11"/><polygon class="cls-3" points="208.98 63.05 200.72 47.72 192.46 32.4 206.26 31.22 220.06 30.04 214.52 46.55 208.98 63.05"/><path class="cls-4" d="M283,19.64s-129,30.65-256,0"/><polygon class="cls-1" points="27 203 20 203 19 4 27 2 27 203"/><polygon class="cls-1" points="290 203 283 203 283 0 291 4 290 203"/><rect class="cls-5" x="17" y="15" width="12" height="4" rx="0.9"/><rect class="cls-5" x="281" y="15" width="12" height="4" rx="0.9"/><rect class="cls-6" x="27" y="217" width="256" height="64"/><path class="cls-7" d="M4.35,203H305.65a4.35,4.35,0,0,1,4.35,4.35V217a0,0,0,0,1,0,0H0a0,0,0,0,1,0,0v-9.65A4.35,4.35,0,0,1,4.35,203Z"/></g></g></svg>