<svg xmlns="http://www.w3.org/2000/svg" width="67.15" height="49.73" viewBox="0 0 67.15 49.73"><defs><style>.cls-1,.cls-2,.cls-6,.cls-8,.cls-9{fill:none;}.cls-1{stroke:#73996d;}.cls-1,.cls-12,.cls-6,.cls-9{stroke-linecap:round;}.cls-1,.cls-12,.cls-2,.cls-6,.cls-8{stroke-miterlimit:10;}.cls-1,.cls-2,.cls-8{stroke-width:4px;}.cls-2{stroke:#e5e5e1;}.cls-3{fill:#73996d;}.cls-4{fill:#1c1c1c;}.cls-5{fill:#fff;}.cls-6{stroke:#3b4c38;stroke-width:1.67px;}.cls-7{fill:#3f3f3f;}.cls-8{stroke:#3f3f3f;}.cls-9{stroke:#3a3a3a;stroke-linejoin:round;}.cls-12,.cls-9{stroke-width:0.25px;}.cls-10,.cls-12{fill:#e5e5e1;}.cls-11{fill:#d1d0bd;}.cls-12{stroke:#aaa;}</style></defs><title>Asset 6</title><g id="Layer_2" data-name="Layer 2"><g id="Layer_1-2" data-name="Layer 1"><path class="cls-1" d="M9.63,28.28A9.49,9.49,0,0,0,6.29,29C4.24,29.9,2,31.82,2,36"/><path class="cls-2" d="M9.63,28.28A9.49,9.49,0,0,0,6.29,29"/><path class="cls-1" d="M57.52,27.93a9.42,9.42,0,0,1,3.33.74c2.06.88,4.3,2.8,4.3,7"/><path class="cls-2" d="M57.52,27.93a9.42,9.42,0,0,1,3.33.74"/><polyline class="cls-1" points="19.37 41.49 19.37 43.98 19.37 47.73"/><line class="cls-1" x1="49.84" y1="41.49" x2="49.84" y2="47.73"/><path class="cls-3" d="M9.63,32.82v-15c0-5.65,2.7-10.71,6.82-12.86C22.51,1.75,28.42,0,34.11,0A43.73,43.73,0,0,1,51.79,4.49c4.11,2.11,6.79,7.22,6.79,12.85V32.82"/><circle class="cls-4" cx="47.57" cy="13.78" r="5.26"/><circle class="cls-5" cx="49.31" cy="11.77" r="1.74"/><path class="cls-6" d="M37.39,16.13c0,1.44-.57,2.91-3.28,2.91s-3.29-1.47-3.29-2.91"/><circle class="cls-4" cx="21.69" cy="14.58" r="5.26"/><circle class="cls-5" cx="20.63" cy="12.28" r="1.74"/><path class="cls-7" d="M11.46,30v2.78c0,9.66,5.7,10.49,12.74,10.49H44c7,0,12.74-.83,12.74-10.49V30Z"/><line class="cls-8" x1="19.37" y1="41.49" x2="19.37" y2="43.98"/><line class="cls-8" x1="49.84" y1="41.49" x2="49.84" y2="43.98"/><polyline class="cls-9" points="31.18 27.32 36.81 27.63 32.05 28.49 35.49 29.2"/><path class="cls-10" d="M39.12,26.63c-.69.06-1.38.09-2.07.13h0l-3,3-3-3h0c-.68,0-1.37-.07-2.06-.13L9.63,25v7.78a17.89,17.89,0,0,0,.88,5.72H40.59l.78-.87.94.45,2.26-1.47,2.31,1.89H57.7a17.89,17.89,0,0,0,.88-5.72V25Z"/><rect class="cls-11" x="14.23" y="30.06" width="4.06" height="4.06" transform="matrix(0.87, -0.5, 0.5, 0.87, -13.87, 12.43)"/><line class="cls-12" x1="14.03" y1="30.68" x2="14.34" y2="31.16"/><line class="cls-12" x1="15.07" y1="30.06" x2="15.38" y2="30.54"/><line class="cls-12" x1="16.05" y1="29.46" x2="16.36" y2="29.94"/><line class="cls-12" x1="14.88" y1="34.27" x2="15.36" y2="33.96"/><line class="cls-12" x1="14.26" y1="33.23" x2="14.74" y2="32.92"/><line class="cls-12" x1="13.66" y1="32.25" x2="14.14" y2="31.94"/><line class="cls-12" x1="18.39" y1="32.33" x2="18.87" y2="32.02"/><line class="cls-12" x1="17.76" y1="31.29" x2="18.24" y2="30.98"/><line class="cls-12" x1="17.16" y1="30.31" x2="17.64" y2="30"/><line class="cls-12" x1="16.26" y1="34.21" x2="16.57" y2="34.69"/><line class="cls-12" x1="17.3" y1="33.59" x2="17.61" y2="34.07"/><line class="cls-12" x1="18.28" y1="32.99" x2="18.6" y2="33.47"/><path class="cls-11" d="M58.58,32.82V31.2l-1.45-1L53.87,34.8,58,37.67A18.2,18.2,0,0,0,58.58,32.82Z"/><line class="cls-12" x1="54.61" y1="33.28" x2="55.09" y2="33.59"/><line class="cls-12" x1="55.3" y1="32.28" x2="55.78" y2="32.59"/><line class="cls-12" x1="55.95" y1="31.33" x2="56.43" y2="31.64"/><line class="cls-12" x1="57.01" y1="37.33" x2="57.32" y2="36.85"/><line class="cls-12" x1="56.01" y1="36.65" x2="56.32" y2="36.16"/><line class="cls-12" x1="55.06" y1="36" x2="55.37" y2="35.51"/></g></g></svg>